# xmcd CD database file
#
# Track frame offsets:
#	150
#	12817
#	28200
#	47738
#	77065
#	106432
#	129365
#	163941
#	189441
#
# Disc length: 2793 seconds
#
# Revision: 0
# Processed by: cddbd v1.5.1PL2 Copyright (c) Steve Scherf et al.
# Submitted via: CDex 1.51
#
DISCID=6e0ae709
DTITLE=Rick Moore and Mr Lucky - Live In The USA
DYEAR=2001
DGENRE=Blues
TTITLE0=House Rockin'
TTITLE1=Talk To Me
TTITLE2=Good Woman Bad
TTITLE3=Make Lovin' You My Business
TTITLE4=Guilty
TTITLE5=Chicken House Blues
TTITLE6=I Wanna Get Funky
TTITLE7=Let Me Down Easy
TTITLE8=Swingin' Her Stuff
EXTD=YEAR: 2001
EXTT0=
EXTT1=
EXTT2=
EXTT3=
EXTT4=
EXTT5=
EXTT6=
EXTT7=
EXTT8=
PLAYORDER=
